# xmcd CD database file
#
# Track frame offsets:
#	150
#	17703
#	30307
#	46073
#	64708
#	81493
#	93173
#	105463
#	115586
#	126499
#	139375
#	154957
#
# Disc length: 2211 seconds
#
# Revision: 0
# Processed by: cddbd v1.5.1PL0 Copyright (c) Steve Scherf et al.
# Submitted via: CDex 1.50beta10
#
DISCID=9708a10c
DTITLE=Lisa Layne - All I Want For Christmas is You
DYEAR=2004
DGENRE=Country
TTITLE0=All I Want For Christmas is You
TTITLE1=White Christmas
TTITLE2=Santa Baby
TTITLE3=Blues For Christmas
TTITLE4=Christmas Just Aint Christmas Without You
TTITLE5=Run Run Rudolf
TTITLE6=Pretty Paper
TTITLE7=Jingle Bell Rock
TTITLE8=Santa Drives an Eighteen Wheeler
TTITLE9=Clinging To A Saving Hand
TTITLE10=Wind Beneath My Wings
TTITLE11=Christmas Auld Lang Syne
EXTD=YEAR: 2004
EXTT0=
EXTT1=
EXTT2=
EXTT3=
EXTT4=
EXTT5=
EXTT6=
EXTT7=
EXTT8=
EXTT9=
EXTT10=
EXTT11=
PLAYORDER=
